<?xml version="1.0" encoding="utf-8"?>
<!-- Generator: Adobe Illustrator 24.0.0, SVG Export Plug-In . SVG Version: 6.00 Build 0)  -->
<svg version="1.1" id="Layer_1" xmlns="http://www.w3.org/2000/svg" xmlns:xlink="http://www.w3.org/1999/xlink" x="0px" y="0px"
	 viewBox="0 0 942.43 523.65" style="enable-background:new 0 0 942.43 523.65;" xml:space="preserve">
<style type="text/css">
	.st0{fill:#FFA600;}
	.st1{fill:#FFFFFF;}
</style>
<g>
	<path class="st0" d="M938.43,188.49c0-2.62-0.22-7.75-1.86-25.94c-1.73-19.15-2.48-23.68-3.04-26.29
		c-3.32-15.77-16.66-25.96-34.03-25.96c-8.39,0-20.68,0.22-37.57,0.68c-16.11,0.44-28.3,0.66-36.24,0.66
		c-8.05,0-20.39-0.22-36.67-0.66c-17.06-0.46-29.48-0.68-37.98-0.68c-8.53,0-16.17,3.22-21.53,9.07
		c-5.21,5.68-7.72,13.18-7.09,21.16l0.14,1.97c0.62,12.35,1.11,22.58,1.45,30.6c-8.98-15.02-20.21-27.4-33.52-36.91
		c-18.44-13.21-43.35-21.48-74.09-24.59c-11.08-1.1-33.76-1.63-69.35-1.63c-19.2,0-32.89,0.49-41.83,1.5
		c-0.21,0.02-0.41,0.05-0.61,0.08c-15.31,2.12-26.01,13.82-26.01,28.46c0,3.66,0.04,7.86,0.12,12.56
		c-3.32-3.98-6.85-7.82-10.6-11.51c-28.97-28.48-66.82-43.97-106.53-43.65c-11.51,0.09-22.79,1.39-33.68,3.81
		c0.52-1.12,1.02-2.26,1.46-3.47c0.04-0.1,0.07-0.19,0.1-0.29c1.63-4.64,2.45-9.31,2.45-13.89c0-4.6-0.8-9.13-2.36-13.44
		c2.79-4.86,3.48-9.5,3.48-12.87c0-7.07-2.79-12.37-6.73-19.1c-3.66-6.24-10.47-17.86-25.36-17.86c-4.05,0-8,0.46-11.84,1.38
		c-2.97-7.06-5.05-14.1-14.97-18.96S160,1,158.49,1c-14.43,0-25.73,11.28-25.73,25.68c0,4.13,0.13,10,0.39,17.97
		c0.24,7.35,0.36,12.85,0.36,16.37c0,2.85-0.16,9.91-0.94,27.3c-0.25,5.27-0.35,7.4-0.4,8.26c-0.07,0.76-0.11,1.52-0.11,2.3
		c0,2.07,0.26,4.07,0.71,6c-38.32,1.25-70.5,16.56-95.7,45.54C12.47,178.6,0,213.14,0,253.08c0,41.28,12.84,76.2,38.09,103.73
		c26.43,29.02,61.08,43.73,103,43.73c41.52,0,75.43-15.3,100.79-45.48c0.1-0.12,0.2-0.24,0.3-0.36c1.54-1.9,2.87-3.8,4.01-5.69
		c2.7,3.08,5.53,6.08,8.5,8.97c28.68,27.96,66.06,43.3,105.42,43.3c0.52,0,1.04,0,1.57-0.01c47.77-0.49,89.6-21.65,117.21-55.05
		c-0.18,7.88-0.28,14.59-0.28,20.08c0,16.17,12.62,28.36,29.36,28.36c5.2,0,13.27,0.17,24,0.49c11.37,0.35,19.71,0.52,25.49,0.52
		c29.71,0,47.49-0.11,54.32-0.35c15.37-0.51,29.56-2.87,42.52-7.04c0.05,1.5,0.24,3,0.57,4.46c1.14,5.15,1.48,57.33,0.46,61.46
		c-0.11,0.45-0.21,0.89-0.29,1.35c-0.99,5.2-1.7,9.25-2.19,12.32c-1.27,5.02-2.24,8.82-2.91,11.42c-0.06,0.23-0.11,0.45-0.17,0.68
		c-0.64,2.79-0.95,5.2-0.95,7.58c0,6.21,2.22,17.81,17.11,25.79c4.3,2.3,9.67,4.39,16.91,6.58c7.55,2.35,16.31,3.49,26.77,3.49
		c16.52,0,31.27-5.75,42.65-16.63c1.23-1.16,2.48-2.47,3.74-3.9c15.25,16.82,32.41,20.77,45.13,20.77
		c15.46,0,37.52-5.83,54.79-33.59c11.24-18.04,16.94-39.51,16.94-63.81c0-10.92-1.16-21.25-3.46-30.95
		c19.12,0.33,25.51,0.88,27.58,1.16c3.58,0.51,6.18,0.74,8.41,0.74c10.82,0,20.38-5.32,26.25-14.6c0.16-0.25,0.31-0.5,0.45-0.75
		c3.01-5.17,5.36-12.36,8.44-33.75c2.79-18.89,1.71-90.36,1.71-94.23C942.22,238.97,938.43,196.94,938.43,188.49z"/>
	<g>
		<g>
			<path class="st1" d="M361.41,376.78c-69.07,0.71-127.23-55.98-128.1-124.88c-0.91-72.32,55.49-129.39,128.47-129.99
				c68.61-0.57,126.69,56.52,127.33,125.15C489.8,319.1,433.75,376.03,361.41,376.78z M267.18,245.05c6,0,12.01,0.27,17.99-0.09
				c4.12-0.25,4.14,1.92,4.03,4.86c-0.11,2.82,0.58,5.47-4.07,5.33c-11.32-0.33-22.67,0.11-33.99-0.21
				c-4.76-0.14-6.53,1.07-5.93,6.07c1.62,13.51,5.2,26.39,10.98,38.71c1.4,2.98,2.88,2.94,5.38,1.39c4.24-2.64,8.71-4.9,12.95-7.53
				c3.4-2.11,3.83,0.82,5.03,2.62c1.3,1.95,2.2,3.53-0.84,5.05c-4.46,2.22-8.61,5.07-13.02,7.4c-2.79,1.48-2.9,2.92-1.19,5.42
				c8.57,12.53,19.14,22.99,31.64,31.59c2.67,1.84,3.97,1.2,5.37-1.41c2.36-4.4,5.14-8.58,7.42-13.02c1.89-3.67,3.75-1.25,5.59-0.28
				c1.79,0.95,4.16,1.5,2.07,4.63c-2.86,4.28-5.13,8.96-7.83,13.35c-1.35,2.19-1.23,3.54,1.23,4.7
				c13.22,6.24,27.02,10.26,41.65,11.37c3.54,0.27,4.69-0.92,4.64-4.41c-0.15-11.66,0.09-23.33-0.13-34.99
				c-0.07-3.93,1.48-4.73,5.02-4.69c3.4,0.04,5.19,0.54,5.11,4.6c-0.23,11.49,0.04,23-0.14,34.49c-0.06,3.83,0.91,5.37,5.07,5.01
				c14.44-1.26,28.09-5.15,41.16-11.32c2.63-1.24,2.91-2.59,1.37-5.01c-2.41-3.79-4.32-7.9-6.8-11.64
				c-1.92-2.89-1.04-4.31,1.65-5.81c2.51-1.4,4.26-2.14,5.89,1.24c2.03,4.18,4.72,8.04,6.93,12.14c1.25,2.3,2.49,2.64,4.68,1.15
				c12.7-8.61,23.35-19.24,31.99-31.93c1.74-2.55,0.82-3.73-1.46-4.97c-4.09-2.23-7.98-4.87-12.16-6.89
				c-3.35-1.62-3.1-3.18-1.51-6.1c1.79-3.31,3.34-3.19,6.13-1.34c3.88,2.56,8.12,4.58,12.08,7.04c2.17,1.35,3.53,1.29,4.71-1.17
				c6.24-13.04,10.23-26.67,11.4-41.12c0.27-3.38-0.98-4.32-4.21-4.28c-11.83,0.14-23.67-0.16-35.49,0.16
				c-4.3,0.12-4.41-1.87-4.36-5.07c0.05-3.09-0.09-5.26,4.3-5.15c11.99,0.32,23.99,0.02,35.99,0.17c3.11,0.04,4.01-0.95,3.84-4.02
				c-0.85-14.84-4.94-28.78-11.15-42.2c-1.4-3.03-2.93-2.85-5.39-1.33c-4.24,2.64-8.71,4.89-12.95,7.53
				c-3.39,2.12-3.85-0.8-5.04-2.59c-1.29-1.92-2.26-3.53,0.79-5.07c4.6-2.32,8.92-5.19,13.46-7.65c2.3-1.25,2.64-2.51,1.16-4.7
				c-8.58-12.72-19.21-23.37-31.91-32c-2.18-1.48-3.4-1.23-4.67,1.12c-2.29,4.25-5.05,8.25-7.19,12.57
				c-1.51,3.04-2.96,3.16-5.71,1.54c-2.82-1.65-3.91-3.02-1.8-6.14c2.6-3.85,4.62-8.1,7.08-12.05c1.49-2.4,1.19-3.76-1.44-5.01
				c-13.06-6.2-26.7-10.11-41.14-11.4c-4.36-0.39-5.38,1.23-5.31,5.27c0.22,11.16-0.06,22.33,0.15,33.49
				c0.07,3.83-0.96,5.23-5.03,5.2c-3.96-0.03-5.17-1.22-5.09-5.15c0.22-11.33-0.02-22.66,0.13-33.99c0.05-3.51-0.73-5.16-4.73-4.84
				c-14.45,1.15-28.11,5.05-41.19,11.21c-2.34,1.1-2.84,2.32-1.4,4.63c2.55,4.1,4.59,8.52,7.31,12.49c2.16,3.14,1.01,4.27-1.76,5.97
				c-3.1,1.9-4.51,1.27-6.04-1.78c-2.09-4.16-4.7-8.05-6.91-12.15c-1.33-2.47-2.66-2.87-5.07-1.24
				c-12.41,8.42-22.91,18.72-31.48,31.05c-1.9,2.73-1.15,3.97,1.46,5.34c4.27,2.25,8.28,5,12.6,7.13c3.28,1.62,2.2,3.38,0.93,5.53
				c-1.24,2.11-2.18,4.12-5.29,2.11c-4.33-2.8-8.95-5.15-13.36-7.82c-2-1.21-3.25-1.05-4.32,1.16
				c-6.85,14.07-11.26,28.78-11.96,44.51c-0.13,2.89,1.24,3.28,3.59,3.25C254.85,244.99,261.01,245.04,267.18,245.05z"/>
			<path class="st1" d="M396.22,166.57c-1.31,3.63-2.48,6.92-3.7,10.19c-8.14,21.79-16.2,43.61-24.52,65.34
				c-1.39,3.64-0.82,5.6,2.41,7.74c10.95,7.27,21.57,15.01,32.59,22.17c3.7,2.4,2.37,4.1,0.71,6.65c-1.76,2.7-3.09,4.19-6.55,1.76
				c-13.34-9.36-26.89-18.42-40.37-27.57c-1.26-0.85-2.44-1.38-1.48-3.46c8.85-19,14.98-39.05,22.65-58.52
				c3.35-8.5,6.42-17.11,9.58-25.68c0.63-1.7,1.24-3.23,3.46-2.02C392.85,164.16,395.71,163.82,396.22,166.57z"/>
		</g>
		<g>
			<path class="st1" d="M178.6,61.01c0,4.21,0.11,10.54,0.32,18.98c0.21,8.45,0.32,14.78,0.32,18.98c0,0.71-0.16,1.16-0.48,1.34
				c-0.07,0.04-0.53,0.11-1.39,0.21c-2.32,0.29-5.42,0.43-9.3,0.43c-5.21,0-8.52-0.14-9.95-0.43c-1.03-0.21-1.55-0.77-1.55-1.66
				c0,0.57,0.16-2.57,0.48-9.41c0.64-14.44,0.96-23.92,0.96-28.45c0-3.81-0.13-9.54-0.37-17.17c-0.25-7.63-0.37-13.35-0.37-17.17
				c0-0.79,0.41-1.18,1.23-1.18c1.1,0,2.77,0.05,5,0.16c2.23,0.11,3.89,0.16,5,0.16c1.1,0,2.74-0.05,4.89-0.16
				c2.16-0.11,3.79-0.16,4.89-0.16c1.03,0,1.55,0.39,1.55,1.18c0,3.81-0.21,9.54-0.61,17.17C178.8,51.47,178.6,57.19,178.6,61.01z"
				/>
			<path class="st1" d="M241.59,41.86c0,0.71-0.39,1.07-1.18,1.07c-1.36,0-6.72-0.27-16.1-0.8c-0.21,9.02-0.32,15.31-0.32,18.88
				c0,4.21,0.17,10.54,0.51,18.98c0.34,8.45,0.51,14.78,0.51,18.98c0,0.68-0.16,1.11-0.48,1.28c-0.11,0.07-0.61,0.16-1.5,0.27
				c-2.14,0.29-5.28,0.43-9.41,0.43c-4.6,0-7.83-0.14-9.68-0.43c-1-0.18-1.5-0.73-1.5-1.66c0-4.21,0.18-10.52,0.54-18.93
				c0.36-8.41,0.53-14.72,0.53-18.93c0-2.78-0.14-8.98-0.43-18.61c-7.13,0.71-12.82,1.07-17.06,1.07c-0.57,0-0.86-0.18-0.86-0.54
				c0-0.46,0.25-1.84,0.75-4.12c0.57-2.5,0.89-4.01,0.96-4.54c0.11-1.68,0.23-3.35,0.37-5.03c0.25-2.67,0.68-4.01,1.28-4.01
				c0.07,0,0.32,0.02,0.75,0.05c5.77,0.75,14.31,1.12,25.61,1.12c3.21,0,9.13-0.34,17.76-1.02c4.63-0.36,6.97-0.53,7-0.53
				c0.71,0,1.12,0.04,1.23,0.13c0.11,0.09,0.18,0.44,0.21,1.04c0,0.96-0.04,2.3-0.11,4.01c-0.07,1.89-0.11,3.23-0.11,4.01
				c0,0.89,0.12,2.2,0.35,3.93C241.48,39.71,241.59,41.01,241.59,41.86z"/>
			<path class="st1" d="M268.01,38.65c0,4.03-1.12,8.34-3.37,12.94c-2.07,4.24-4.67,7.88-7.81,10.91c-0.71,0.71-1.28,1.07-1.71,1.07
				c-0.36,0-0.73-0.25-1.12-0.75c-0.21-0.25-1.32-1.23-3.32-2.94c-1.78-1.53-2.67-2.39-2.67-2.57c0,0.36,0.91-0.86,2.73-3.66
				c1.82-2.8,2.73-5.71,2.73-8.74c0-2.32-1.33-4.86-3.98-7.62c-2.66-2.76-3.98-4.22-3.98-4.36c0-0.57,0.89-1.57,2.67-2.99
				c1.18-0.89,2.35-1.78,3.53-2.67c1.1-1.03,2.19-2.05,3.26-3.05c1.82-1.67,2.85-2.51,3.1-2.51c0.36,0,0.87,0.25,1.55,0.75
				C265.21,26.84,268.01,32.24,268.01,38.65z"/>
			<path class="st1" d="M308.55,57.26c0,0.36-0.27,0.84-0.8,1.44c-1-0.25-2-0.37-2.99-0.37c-2.1,0-3.87,0.46-5.29,1.39
				c-1.71,1.07-2.57,2.58-2.57,4.54c0,1.25,0.91,2.83,2.73,4.76c2.74,2.89,4.44,4.83,5.08,5.83c1.82,2.71,2.73,5.62,2.73,8.72
				c0,1.82-0.36,3.74-1.07,5.78c-0.82,2.25-1.85,3.89-3.1,4.92c-2.64,2.28-5.72,4.21-9.25,5.78c-3.82,1.64-7.33,2.46-10.54,2.46
				c-0.71,0-2.31-1.93-4.79-5.8c-2.48-3.87-3.72-6.23-3.72-7.09c0-0.32,0.2-0.52,0.59-0.59c2.5-0.46,5.01-0.93,7.54-1.39
				c3.14-1,4.71-2.64,4.71-4.92c0-1.57-0.91-3.39-2.73-5.46c-3.25-3.6-4.94-5.51-5.08-5.72c-1.82-2.57-2.73-5.28-2.73-8.13
				c0-5.35,2.71-9.89,8.13-13.64c4.85-3.32,10.04-4.97,15.56-4.97c0.57,0,1.98,1.92,4.22,5.75S308.55,56.62,308.55,57.26z"/>
		</g>
		<g>
			<path class="st1" d="M747.47,456.32c0,14.16-4.04,25.07-12.12,32.72c-6.87,6.58-15.45,9.87-25.75,9.87
				c-7.92,0-14.45-0.8-19.57-2.41c-11.15-3.37-16.72-6.35-16.72-8.95c0-0.46,0.11-1.15,0.32-2.07c0.74-2.83,1.82-7.08,3.25-12.74
				c0.42-2.83,1.16-7.04,2.22-12.63c0.47-1.91,1.27-2.87,2.38-2.87c-0.16,0,2.21,1.26,7.09,3.79c4.88,2.53,8.89,3.79,12,3.79
				c10.35,0,15.53-5.01,15.53-15.04c0-8.04-4.91-12.05-14.74-12.05c-1.32,0-3.06,0.08-5.23,0.23c-2.17,0.15-3.59,0.23-4.28,0.23
				c-3.22,0-4.99-0.04-5.31-0.12c-2.32-0.38-3.49-1.68-3.49-3.9c0-11.71,0.32-19.06,0.95-22.04c0.42-1.91,1.27-2.87,2.54-2.87
				c1.8,0,4.45,0.33,7.96,0.98c3.51,0.65,6.14,0.98,7.88,0.98c2.27,0,4.16-1.09,5.67-3.27c1.5-2.18,2.26-4.95,2.26-8.32
				c0-9.03-4.54-13.55-13.63-13.55c-3.8,0-8.95,1.49-15.45,4.48c-0.26,0.08-0.5,0.11-0.71,0.11c-0.69,0-1.27-1.07-1.74-3.21
				c-0.11-3.21-0.26-6.89-0.48-11.02c-0.05-0.92-0.21-2.76-0.47-5.51c-0.21-2.22-0.32-4.02-0.32-5.4c0-4.06,4.33-7.19,13-9.41
				c5.97-1.53,11.75-2.3,17.35-2.3c8.98,0,16.85,2.87,23.61,8.61c8.19,6.89,12.28,16.42,12.28,28.59c0,14.01-4.38,24.65-13.15,31.92
				c5.18,2.53,9.28,6.77,12.32,12.74C745.96,441.63,747.47,448.52,747.47,456.32z"/>
			<path class="st1" d="M848.34,426.24c0,19.75-4.41,36.7-13.23,50.86c-9.14,14.69-20.47,22.04-33.99,22.04
				c-13.52,0-24.83-7.35-33.91-22.04c-8.87-14.16-13.31-31.11-13.31-50.86c0-19.82,4.44-36.74,13.31-50.74
				c9.08-14.46,20.39-21.7,33.91-21.7c13.52,0,24.83,7.23,33.91,21.7C843.9,389.58,848.34,406.5,848.34,426.24z M818.95,426.24
				c0-7.88-1.58-14.73-4.75-20.55c-3.38-6.2-7.74-9.3-13.07-9.3c-5.44,0-9.83,3.06-13.15,9.18c-3.12,5.67-4.67,12.55-4.67,20.67
				c0,7.96,1.56,14.89,4.67,20.78c3.38,6.35,7.76,9.53,13.15,9.53c5.18,0,9.51-3.25,12.99-9.76
				C817.33,440.82,818.95,433.98,818.95,426.24z"/>
		</g>
		<g>
			<path class="st1" d="M199.8,290.82c-1.12-1.23-2.24-1.85-3.35-1.85c-0.56,0-3.3,2.13-8.22,6.38
				c-5.93,5.03-11.74,8.95-17.45,11.74c-8.72,4.25-17.95,6.38-27.68,6.38c-16.44,0-29.58-6.26-39.42-18.79
				c-9.06-11.52-13.59-25.78-13.59-42.78c0-16.78,4.53-30.87,13.59-42.27c9.84-12.3,22.98-18.45,39.42-18.45
				c9.5,0,18.68,2.24,27.51,6.71c5.81,3.02,11.74,7.21,17.78,12.58c5.03,4.47,7.83,6.71,8.39,6.71c1.34,0,2.46-0.45,3.35-1.34
				c2.01-1.68,6.9-9.34,14.68-22.98c7.77-13.64,11.66-21.53,11.66-23.65c0-1.9-1.12-4.08-3.35-6.54
				c-20.58-22.25-48.98-33.38-85.22-33.38c-33.33,0-60.78,12.41-82.37,37.24c-20.69,23.71-31.03,52.56-31.03,86.56
				c0,35.12,10.57,64.19,31.71,87.23c21.7,23.82,49.99,35.73,84.88,35.73c34.11,0,61.45-12.25,82.03-36.74
				c2.35-2.91,3.52-5.26,3.52-7.05c0-1.23-4.08-8.05-12.25-20.47C206.45,299.83,201.59,292.84,199.8,290.82z"/>
			<path class="st1" d="M689.64,336.79c21.14-24.16,31.71-52.67,31.71-85.55c0-18.12-3.92-35.73-11.74-52.84
				c-8.17-18.12-19.29-32.21-33.38-42.27c-14.99-10.74-35.73-17.45-62.24-20.13c-10.18-1.01-32.49-1.51-66.93-1.51
				c-18.12,0-31.15,0.45-39.09,1.34c-3.24,0.45-4.86,1.84-4.86,4.19c0,12.75,0.47,31.96,1.43,57.62
				c0.95,25.67,1.43,44.93,1.43,57.79c0,12.3-0.48,30.78-1.43,55.44c-0.95,24.66-1.43,43.14-1.43,55.44c0,2.57,1.62,3.86,4.86,3.86
				c5.48,0,13.73,0.17,24.74,0.5c11.01,0.34,19.26,0.5,24.74,0.5c29.19,0,47.03-0.11,53.51-0.34
				C644.74,369.73,670.96,358.37,689.64,336.79z M641.49,299.38c-11.07,12.86-26.28,19.29-45.63,19.29
				c-17.89,0-26.84-2.4-26.84-7.21c0-6.6-0.11-16.41-0.34-29.44c-0.22-13.03-0.33-22.79-0.33-29.27c0-6.6,0.11-16.52,0.33-29.78
				c0.22-13.25,0.34-23.18,0.34-29.78c0-4.58,8.61-6.88,25.83-6.88c18.79,0,33.89,6.21,45.29,18.62
				c11.29,11.97,16.94,27.4,16.94,46.3C657.1,271.14,651.9,287.19,641.49,299.38z"/>
			<path class="st1" d="M909.04,223.86c0.01,0.12,0.03,0.24,0.03,0.37C909.06,224.01,909.05,223.89,909.04,223.86z"/>
			<path class="st1" d="M915.44,311.96c-5.82,0-14.57,0.53-26.25,1.59c-11.69,1.06-20.5,1.59-26.42,1.59c-16.55,0-24.72,0-24.49,0
				c-12.41-0.78-19.57-3.3-21.47-7.55c-1.12-2.46-1.68-7.94-1.68-16.44c0-6.38,0.06-9.84,0.17-10.4c0.78-2.24,3.46-3.36,8.05-3.36
				h17.78c22.7,0,37.24,0.34,43.62,1.01l15.1,1.68c3.24,0,4.86-1.12,4.86-3.36c0-8.95,0.45-17.89,1.34-26.84
				c1.83-17.67,2.83-26.35,2.99-26.04c-0.13-2.32-1.45-3.49-4-3.49c-2.24,0-5.26,0.23-9.06,0.67c-4.92,0.45-8,0.73-9.23,0.84
				c-14.43,0.78-28.69,1.17-42.78,1.17c-2.13,0-4.81,0.08-8.05,0.25c-3.25,0.17-5.43,0.25-6.54,0.25c-5.37,0-9-1.06-10.9-3.19
				c-2.24-2.46-3.36-7.49-3.36-15.1c0-7.27,0.28-11.57,0.84-12.92c1.34-2.79,4.98-4.19,10.9-4.19c23.71,0,50.44,1.23,80.19,3.69
				c1.68,0.11,2.85,0.17,3.52,0.17c2.24,0,3.35-1.17,3.35-3.52c0-2.79-0.59-10.71-1.76-23.74c-1.17-13.03-2.04-20.83-2.6-23.4
				c-0.9-4.36-4.25-6.54-10.07-6.54c-8.17,0-20.47,0.23-36.91,0.67c-16.44,0.45-28.74,0.67-36.91,0.67
				c-8.28,0-20.72-0.22-37.32-0.67c-16.61-0.45-29.05-0.67-37.33-0.67c-3.02,0-4.42,1.29-4.19,3.86l0.17,2.35
				c0.89,17.78,1.51,31.15,1.85,40.09c1.34,34.78,2.01,58.55,2.01,71.29c0,12.53-0.7,31.34-2.1,56.45
				c-1.4,25.11-2.1,43.92-2.1,56.45c0,3.25,1.84,4.87,5.54,4.87c2.58,0,5.55,0.01,8.92,0.02c10.49-16.16,23.94-24.39,39.99-24.39
				c16.15,0,29.68,8.33,40.21,24.73c32.06,0.11,51.74,0.66,59.01,1.66c2.35,0.34,4.03,0.5,5.03,0.5c2.35,0,4.19-1.06,5.54-3.19
				c1.57-2.68,3.36-11.01,5.37-25c1.9-12.86,2.85-21.7,2.85-26.5C919.13,313.97,917.89,311.96,915.44,311.96z"/>
		</g>
	</g>
</g>
</svg>
